<?xml version="1.0" encoding="UTF-8"?>
<svg width="700pt" height="700pt" version="1.1" viewBox="0 0 700 700" xmlns="http://www.w3.org/2000/svg">
 <path d="m583.33 480.34-132.73-132.73 0.003907 0.003906c29.234-37.633 43.031-84.992 38.574-132.44-4.457-47.445-26.832-91.41-62.566-122.94s-82.141-48.254-129.77-46.766c-47.633 1.4883-92.906 21.074-126.6 54.773-33.699 33.695-53.285 78.969-54.773 126.6-1.4883 47.629 15.238 94.035 46.766 129.77s75.492 58.109 122.94 62.566c47.445 4.457 94.805-9.3398 132.44-38.574l132.73 132.73zm-280-107c-37.129 0-72.738-14.75-98.992-41.004-26.258-26.254-41.008-61.863-41.008-98.996 0-37.129 14.75-72.738 41.008-98.992 26.254-26.258 61.863-41.008 98.992-41.008 37.133 0 72.742 14.75 98.996 41.008 26.254 26.254 41.004 61.863 41.004 98.992-0.039062 37.117-14.801 72.703-41.047 98.953-26.25 26.246-61.836 41.008-98.953 41.047z"/>
</svg>
